<?xml version="1.0" encoding="UTF-8"?>
<svg width="200" height="200" viewBox="0 0 200 200" xmlns="http://www.w3.org/2000/svg">
  <defs>
    <linearGradient id="quantumGradient" x1="0%" y1="0%" x2="100%" y2="100%">
      <stop offset="0%" style="stop-color:#00D4FF;stop-opacity:1" />
      <stop offset="50%" style="stop-color:#6366F1;stop-opacity:1" />
      <stop offset="100%" style="stop-color:#8B5CF6;stop-opacity:1" />
    </linearGradient>
    
    <linearGradient id="sparkGradient" x1="0%" y1="0%" x2="100%" y2="0%">
      <stop offset="0%" style="stop-color:#F59E0B;stop-opacity:1" />
      <stop offset="100%" style="stop-color:#EF4444;stop-opacity:1" />
    </linearGradient>
    
    <filter id="glow">
      <feGaussianBlur stdDeviation="2" result="coloredBlur"/>
      <feMerge> 
        <feMergeNode in="coloredBlur"/>
        <feMergeNode in="SourceGraphic"/>
      </feMerge>
    </filter>
  </defs>
  
  <rect width="200" height="200" fill="transparent"/>
  
  <!-- Quantum-inspired abstract symbol -->
  <g transform="translate(100, 100)">
    <!-- Main quantum orbit -->
    <ellipse cx="0" cy="0" rx="50" ry="25" fill="none" stroke="url(#quantumGradient)" stroke-width="3" transform="rotate(30)"/>
    <ellipse cx="0" cy="0" rx="35" ry="15" fill="none" stroke="url(#sparkGradient)" stroke-width="2" transform="rotate(-30)"/>
    
    <!-- Spark elements -->
    <g transform="translate(30, -20)">
      <path d="M 0 0 L 8 -8 L 4 -4 L 8 0 L 4 4 L 8 8 L 0 16 L -4 8 L 0 4 L -8 8 L -4 4 L -8 0 L -4 -4 L -8 -8 L 0 0" fill="url(#sparkGradient)" filter="url(#glow)"/>
    </g>
    
    <!-- Bot/AI indicator -->
    <circle cx="0" cy="0" r="12" fill="url(#quantumGradient)"/>
    <rect x="-3" y="-8" width="6" height="4" fill="#FFFFFF" rx="1"/>
    <rect x="-3" y="4" width="6" height="4" fill="#FFFFFF" rx="1"/>
  </g>
</svg>